<?xml version="1.0" encoding="UTF-8" standalone="no"?>
<svg
   viewBox="0,0,256,256"
   width="64px"
   height="64px"
   fill-rule="nonzero"
   version="1.1"
   id="svg2"
   sodipodi:docname="github-dark2.svg"
   inkscape:version="1.3.2 (091e20e, 2023-11-25)"
   xmlns:inkscape="http://www.inkscape.org/namespaces/inkscape"
   xmlns:sodipodi="http://sodipodi.sourceforge.net/DTD/sodipodi-0.dtd"
   xmlns="http://www.w3.org/2000/svg"
   xmlns:svg="http://www.w3.org/2000/svg">
  <defs
     id="defs2" />
  <sodipodi:namedview
     id="namedview2"
     pagecolor="#ffffff"
     bordercolor="#000000"
     borderopacity="0.25"
     inkscape:showpageshadow="2"
     inkscape:pageopacity="0.0"
     inkscape:pagecheckerboard="0"
     inkscape:deskcolor="#d1d1d1"
     inkscape:zoom="3.6875"
     inkscape:cx="32"
     inkscape:cy="32"
     inkscape:window-width="1312"
     inkscape:window-height="449"
     inkscape:window-x="0"
     inkscape:window-y="38"
     inkscape:window-maximized="0"
     inkscape:current-layer="svg2" />
  <g
     fill="#ffffff"
     fill-rule="nonzero"
     stroke="none"
     stroke-width="1"
     stroke-linecap="butt"
     stroke-linejoin="miter"
     stroke-miterlimit="10"
     stroke-dasharray="none"
     stroke-dashoffset="0"
     font-family="none"
     font-weight="none"
     font-size="none"
     text-anchor="none"
     style="mix-blend-mode:normal"
     id="g2"
     transform="matrix(1.4437596,0,0,1.4375963,-56.801233,-55.469954)">
    <g
       transform="scale(8)"
       id="g1">
      <path
         d="M 5,5 V 27 H 27 V 5 Z M 7,7 H 25 V 25 H 7 Z m 8.9082,2 C 11.9892,9 9,11.97477 9,15.88477 c 0,3.133 1.9672,5.81481 4.7832,6.75781 0.365,0.064 0.49219,-0.1598 0.49219,-0.3418 0,-0.174 -0.0078,-1.14133 -0.0078,-1.73633 0,0 -1.98448,0.4272 -2.39648,-0.8418 0,0 -0.3232,-0.81725 -0.7832,-1.03125 0,0 -0.64313,-0.44355 0.04688,-0.43555 0,0 0.69889,0.05647 1.08789,0.73047 0.618,1.095 1.65555,0.77575 2.06055,0.59375 0.063,-0.452 0.24713,-0.76917 0.45313,-0.95117 -1.579,-0.174 -3.17383,-0.40419 -3.17383,-3.11719 0,-0.778 0.21402,-1.16602 0.66602,-1.66602 -0.072,-0.183 -0.31674,-0.94392 0.07226,-1.91992 0.595,-0.183 1.95117,0.76172 1.95117,0.76172 0.563,-0.151 1.17239,-0.23828 1.77539,-0.23828 0.603,0 1.21434,0.08728 1.77734,0.23828 0,0 1.35617,-0.94372 1.95117,-0.76172 0.388,0.984 0.14131,1.73792 0.07031,1.91992 0.452,0.5 0.73047,0.88902 0.73047,1.66602 0,2.728 -1.66614,2.94319 -3.24414,3.11719 0.262,0.222 0.48438,0.64259 0.48438,1.30859 0,0.952 -0.0078,2.13523 -0.0078,2.36523 0,0.182 0.12738,0.40284 0.48438,0.33984 2.815,-0.944 4.72656,-3.62481 4.72656,-6.75781 0,-3.91 -3.1728,-6.88477 -7.0918,-6.88477 z m -4.3457,9.48633 c -0.056,-0.016 -0.10314,-0.0066 -0.11914,0.02539 -0.016,0.032 0.0065,0.07737 0.0625,0.10938 0.048,0.024 0.10314,0.01656 0.11914,-0.02344 0.016,-0.032 -0.0065,-0.08033 -0.0625,-0.11133 z m 0.25391,0.23633 c -0.02675,-0.006 -0.05227,-0.0024 -0.07226,0.01758 -0.04,0.032 -0.03238,0.09439 0.01563,0.15039 0.048,0.04 0.11039,0.06344 0.15039,0.02344 0.04,-0.032 0.03238,-0.09439 -0.01562,-0.15039 -0.024,-0.02 -0.05138,-0.03502 -0.07812,-0.04102 z m 0.29687,0.36718 c -0.02875,-0.01 -0.05998,-0.0082 -0.08398,0.0078 -0.048,0.032 -0.048,0.10497 0,0.16797 0.048,0.063 0.12016,0.0945 0.16016,0.0625 0.047,-0.032 0.047,-0.11183 0,-0.17383 -0.02,-0.032 -0.04742,-0.05445 -0.07617,-0.06445 z m 0.32422,0.39649 c -0.03262,-0.004 -0.06203,0.0073 -0.08203,0.03125 -0.039,0.04 -0.02394,0.11783 0.03906,0.17383 0.063,0.064 0.14164,0.07339 0.18164,0.02539 0.04,-0.032 0.01694,-0.11978 -0.03906,-0.17578 -0.0315,-0.032 -0.06698,-0.05069 -0.09961,-0.05469 z m 0.54492,0.3164 c -0.071,-0.016 -0.15783,0.0065 -0.17383,0.0625 -0.016,0.056 0.04014,0.12072 0.11914,0.13672 0.071,0.032 0.15783,-0.0016 0.17383,-0.05664 0.024,-0.055 -0.03214,-0.11858 -0.11914,-0.14258 z m 1.07031,0.0254 c -0.079,0.016 -0.13495,0.07177 -0.12695,0.13477 0.008,0.055 0.08702,0.08631 0.16602,0.07031 0.087,-0.016 0.14295,-0.07095 0.12695,-0.12695 -0.008,-0.056 -0.08602,-0.08713 -0.16602,-0.07812 z m -0.52343,0.0625 c -0.088,0 -0.15039,0.04752 -0.15039,0.10352 0,0.063 0.0632,0.11152 0.1582,0.10352 0.088,0 0.15039,-0.04752 0.15039,-0.10352 0,-0.064 -0.0782,-0.11152 -0.1582,-0.10352 z"
         id="path1" />
    </g>
  </g>
</svg>
