<?xml version="1.0" encoding="UTF-8" standalone="no"?>
<svg
   viewBox="0 0 32 32"
   width="64px"
   height="64px"
   version="1.1"
   id="svg1"
   sodipodi:docname="github-light2.svg"
   inkscape:version="1.3.2 (091e20e, 2023-11-25)"
   xmlns:inkscape="http://www.inkscape.org/namespaces/inkscape"
   xmlns:sodipodi="http://sodipodi.sourceforge.net/DTD/sodipodi-0.dtd"
   xmlns="http://www.w3.org/2000/svg"
   xmlns:svg="http://www.w3.org/2000/svg">
  <defs
     id="defs1" />
  <sodipodi:namedview
     id="namedview1"
     pagecolor="#ffffff"
     bordercolor="#000000"
     borderopacity="0.25"
     inkscape:showpageshadow="2"
     inkscape:pageopacity="0.0"
     inkscape:pagecheckerboard="0"
     inkscape:deskcolor="#d1d1d1"
     inkscape:zoom="3.6875"
     inkscape:cx="32"
     inkscape:cy="32"
     inkscape:window-width="1312"
     inkscape:window-height="449"
     inkscape:window-x="0"
     inkscape:window-y="38"
     inkscape:window-maximized="0"
     inkscape:current-layer="svg1" />
  <path
     d="M 0.11864407,0.11864407 V 32.016949 H 32.016949 V 0.11864407 Z M 3.01849,3.01849 H 29.117103 V 29.117103 H 3.01849 Z m 12.916208,2.8998459 c -5.682248,0 -10.016362,4.3131821 -10.016362,9.9823801 0,4.542608 2.8522931,8.431029 6.935275,9.798307 0.529223,0.09279 0.713635,-0.231694 0.713635,-0.49558 0,-0.252286 -0.01134,-1.654838 -0.01134,-2.517541 0,0 -2.877348,0.619411 -3.474717,-1.220541 0,0 -0.4686191,-1.18495 -1.1355838,-1.495233 0,0 -0.9324814,-0.643109 0.06796,-0.631509 0,0 1.0133368,0.08188 1.5773568,1.059123 0.896053,1.587665 2.400415,1.124778 2.987635,0.860892 0.09135,-0.655366 0.358312,-1.115241 0.656996,-1.379127 -2.289428,-0.252286 -4.6018062,-0.58604 -4.6018062,-4.519681 0,-1.128039 0.3103068,-1.690633 0.9656722,-2.415594 -0.104395,-0.265336 -0.459242,-1.368614 0.104774,-2.783739 0.862704,-0.2653359 2.829048,1.104434 2.829048,1.104434 0.816307,-0.218939 1.699877,-0.34549 2.57418,-0.34549 0.874304,0 1.760706,0.126551 2.577012,0.34549 0,0 1.966344,-1.36832 2.829048,-1.104434 0.56257,1.426724 0.204893,2.519853 0.101951,2.783739 0.655365,0.724961 1.059123,1.289005 1.059123,2.415594 0,3.95539 -2.415776,4.267395 -4.703754,4.519681 0.379881,0.321884 0.702307,0.931713 0.702307,1.897361 0,1.380326 -0.01133,3.095925 -0.01133,3.429408 10e-7,0.263886 0.184685,0.584093 0.702308,0.492747 4.081531,-1.368728 6.853151,-5.255699 6.853151,-9.798307 0,-5.669198 -4.600312,-9.9823801 -10.28256,-9.9823801 z M 9.6337634,19.67278 c -0.081195,-0.0232 -0.1495458,-0.0096 -0.172745,0.03681 -0.0232,0.0464 0.00945,0.112188 0.090617,0.158586 0.069601,0.03479 0.1495458,0.02401 0.172745,-0.03398 0.0232,-0.0464 -0.00945,-0.116474 -0.090617,-0.161419 z m 0.3681446,0.342657 c -0.038785,-0.0087 -0.075776,-0.0035 -0.1047851,0.02549 -0.057995,0.0464 -0.046944,0.13686 0.022657,0.218056 0.069601,0.05799 0.1600581,0.09197 0.2180551,0.03398 0.058,-0.0464 0.04694,-0.136858 -0.02266,-0.218054 -0.0348,-0.029 -0.07449,-0.05077 -0.113275,-0.05947 z m 0.430446,0.532395 c -0.04169,-0.0145 -0.08697,-0.01187 -0.121771,0.01133 -0.0696,0.0464 -0.0696,0.152196 0,0.243541 0.0696,0.09135 0.174217,0.137018 0.232214,0.09062 0.06815,-0.0464 0.06815,-0.162142 0,-0.252038 -0.029,-0.0464 -0.06876,-0.07895 -0.110441,-0.09345 z m 0.470092,0.574872 c -0.04731,-0.0058 -0.08994,0.01051 -0.118939,0.04531 -0.05654,0.05799 -0.03471,0.170842 0.05664,0.252037 0.09135,0.09279 0.205369,0.106415 0.263366,0.03681 0.058,-0.0464 0.02456,-0.173673 -0.05664,-0.254868 -0.04567,-0.0464 -0.09712,-0.0735 -0.144426,-0.07929 z m 0.790096,0.458764 c -0.102944,-0.0232 -0.228839,0.0094 -0.252039,0.09062 -0.0232,0.0812 0.0582,0.175033 0.172744,0.198231 0.102943,0.0464 0.228839,-0.0024 0.252038,-0.08213 0.0348,-0.07974 -0.0466,-0.171929 -0.172743,-0.206727 z m 1.551869,0.03681 c -0.114538,0.0232 -0.195671,0.104054 -0.184072,0.195401 0.01157,0.07974 0.126167,0.125145 0.24071,0.101952 0.126144,-0.0232 0.207271,-0.102872 0.184073,-0.184072 -0.01157,-0.0812 -0.124718,-0.126325 -0.240711,-0.113275 z m -0.758943,0.09062 c -0.127594,0 -0.218056,0.06889 -0.218056,0.150091 0,0.09135 0.09164,0.161687 0.229382,0.150088 0.127594,0 0.218056,-0.06889 0.218056,-0.150088 0,-0.09279 -0.113392,-0.161691 -0.229382,-0.150091 z"
     id="path1"
     style="stroke-width:1.44992" />
</svg>
